<svg xmlns="http://www.w3.org/2000/svg" viewBox="0 0 300 300" class="iconLeftSlogan"><path fill="transparent" class="logo-background-square" d="M0 0h300v300H0z"/><path d="M2 15l-1-1 1-4V5 4l2 1v1l-1 4v4h5l-1 1-1 1-1-1H3l-2 1 1-1zm9-5l-1 1v3h3l1-3V9 7q2 0 2 2l-1 2v5l-1-1v-2l-2 2-2 1-1-1-1-2 1-2 1-2 2-1h1l-1 1-1 1zm14-4l-1 3v7l-1-1v-1-4-4-2h1l1 1 2-1 2 1 1 2-1 3-3 1h-1l2-1h1V7 6l-2-1-1 1zm8 4l-1 1v3h3l1-3V9 7h1l1 2-1 2v5l-1-1v-2l-1 2-2 1-2-1v-2-2l1-2 2-1h2l-2 1-1 1zm13-1v6l1 1h-1l-1-1-1-1 1-2v-2l-1-1-2 1v5h-1l-1-1v-2l1-3-1-2 1 1 1 1v2l1-3 2-1 1 2zm7-1v1h-2v2l-1 3 1 2-2-1v-1-2l1-2V9h-2l1-1h1V6 5l1 1v2l2-1v1zm3 3l1-3 2-1 1 1v7l1 1h-1l-1-1-1-1 1-2v-2l-1-1-1 1-1 2v3h-1-1v-1-2l1-8V2l1 1v8zm10-3l-1 1-1 2h3V9 8h-1zm2 6l-1 1-2 1-2-1v-3l1-3 1-1 2-1q2 0 2 2l-1 2-2 1h-2l1 3q2 0 3-2v1zm0-8v1l-2-1-1-1V4l2 1 1 1zm4 5l1-3 2-1 1 1v1l-1 1-1 1 1-2h-1-1v1l-1 2v3l-2-1 1-2V9 7l1 1v3zm8-3l-1 1-1 2h3V9 8h-1zm2 6l-1 1-2 1-2-1v-3l1-3 1-1 2-1q2 0 2 2l-1 2-2 1h-2q0 3 2 3l2-2v1z" transform="translate(110.422 123.1) scale(1.80846)" id="dff727ea-c914-4c1d-9325-86d683f65698"/><defs><linearGradient gradientTransform="rotate(25)" id="03eee680-b084-463f-ac63-5d4db96cf555" x1="0%" y1="0%" y2="0%"><stop offset="0%" stop-color="#B4373D"/><stop offset="100%" stop-color="#B23ACB"/></linearGradient></defs><g id="dfe8044c-91b6-4966-9038-a63642c35301" fill="url(#03eee680-b084-463f-ac63-5d4db96cf555)" transform="matrix(.6415 0 0 .6415 37.326 117.896)"><defs><style>.cls-1{fill:#1d1d1b}</style></defs><path class="cls-1" d="M44 46a6 6 0 0 0-4-3 12 12 0 0 0-2 0 16 16 0 0 1-7-3 1 1 0 0 0 0 2 17 17 0 0 0 2 1h-1a6 6 0 0 0 5 8 6 6 0 0 0 1 0 6 6 0 0 0 5-2 10 10 0 0 1 0 3 1 1 0 0 0 0 1 1 1 0 0 0 1 0 1 1 0 0 0 0-1 12 12 0 0 0 1-4 5 5 0 0 0-1-2zm-4-1a1 1 0 1 1-3-1h1a11 11 0 0 1 2 1zm0 4a5 5 0 0 1-3 0 5 5 0 0 1-3-6 16 16 0 0 0 2 1 3 3 0 1 0 5 1 4 4 0 0 1 1 1 4 4 0 0 1-2 3zm28-6h-1a17 17 0 0 0 2-1 1 1 0 0 0 0-2 16 16 0 0 1-7 3 12 12 0 0 0-2 0 6 6 0 0 0-4 3 5 5 0 0 0-1 2 12 12 0 0 0 1 4 1 1 0 0 0 0 1 1 1 0 0 0 1-1 10 10 0 0 1 0-3 6 6 0 0 0 5 2 6 6 0 0 0 1 0 6 6 0 0 0 5-8zm-6 1h1a1 1 0 0 1-1 2 1 1 0 0 1-2-1 11 11 0 0 1 2-1zm1 5a5 5 0 0 1-3 0 4 4 0 0 1-2-3 4 4 0 0 1 1-1 3 3 0 0 0 0 1 3 3 0 0 0 3 2 3 3 0 0 0 2-4 16 16 0 0 0 2-1v1a5 5 0 0 1-3 5z"/><path class="cls-1" d="M46 45c0-2-2-4-5-4a12 12 0 0 1-4-2 1 1 0 0 0-1 2 13 13 0 0 0 5 1c1 1 4 1 4 3a1 1 0 0 0 1 1 1 1 0 0 0 0-1zm13-3a13 13 0 0 0 6-1 1 1 0 0 0-1-2 12 12 0 0 1-5 2c-3 0-5 2-5 4a1 1 0 0 0 1 1 1 1 0 0 0 1-1c0-2 2-2 3-3zm-24-5a1 1 0 1 0 1-1l-3-4a1 1 0 1 0-2 1zm3-2a1 1 0 0 0 1 1 1 1 0 0 0 0-1l-1-4a1 1 0 1 0-1 0zm4 0a1 1 0 0 0 1-1v-3a1 1 0 0 0-1 0l-1 3a1 1 0 0 0 1 1z"/><path class="cls-1" d="M95 61l-20-1c5-6 5-12 4-15-1-2-2-8-1-10a2 2 0 0 1 2-1l2-3a8 8 0 0 1 0-2 4 4 0 0 1 2-1 11 11 0 0 0 3-4c1-4-1-6-1-6a6 6 0 0 0-5 0l-3 2a7 7 0 0 1-8-2c-4-4-8-5-20-5s-15 1-20 5a7 7 0 0 1-8 2 52 52 0 0 1-3-1 6 6 0 0 0-5-1s-2 2-1 6a11 11 0 0 0 4 4 4 4 0 0 1 1 1 8 8 0 0 1 0 2l2 4a2 2 0 0 1 2 0c1 2 0 8-1 10-1 3-1 9 4 15L5 61a1 1 0 0 0 0 1h22v1l-15 1a1 1 0 1 0 0 1l17-1 1 1c-7 0-17 1-21 3a1 1 0 0 0 0 1c5-2 17-2 23-3l1 1-13 2a1 1 0 0 0 1 2l12-2a20 20 0 0 0 1 5c2 4 4 5 6 6a6 6 0 0 0 2 1 15 15 0 0 0-3 5 1 1 0 0 0 1 0l3-4a11 11 0 0 0 2 1 11 11 0 0 0-1 3 1 1 0 0 0 1 1 1 1 0 0 0 1 0 10 10 0 0 1 1-4 20 20 0 0 0 6 0 11 11 0 0 1 1 4 1 1 0 0 0 1 0 1 1 0 0 0 1-1 11 11 0 0 0-1-3 11 11 0 0 0 2-1l3 4a1 1 0 0 0 1 0 15 15 0 0 0-3-5 6 6 0 0 0 2-1c2-1 4-2 6-6a20 20 0 0 0 1-5l12 2a1 1 0 1 0 1-2l-13-2h1v-1c6 1 18 1 23 3a1 1 0 0 0 0-1c-4-2-14-3-21-3l1-1 17 2a1 1 0 0 0 0-2l-15-1v-1h1c6 0 17-1 21 1a1 1 0 0 0 0-2zM53 80a1 1 0 1 0-1 1l1 1a18 18 0 0 1-6 0l1-1a1 1 0 1 0-1-1l-1 2a7 7 0 0 1-4-2h3a6 6 0 0 0 5-4 6 6 0 0 0 5 4h3a7 7 0 0 1-4 2l-1-2zm17-17l-2 2h-1l1-4a1 1 0 0 0-1-1l-2 5a1 1 0 0 0-1 0 1 1 0 0 0 1 1v1a1 1 0 0 0-1 1 1 1 0 0 0 1 0 20 20 0 0 1 0 5c-2 4-3 5-6 5h-4a5 5 0 0 1-4-4 6 6 0 0 1 1-1l2-3 2-2a2 2 0 0 0 1-2 2 2 0 0 0-1-2 1 1 0 0 0-1 0 1 1 0 0 0 1 1v1h-1v1l-3 3-1 1a10 10 0 0 0-1 1 10 10 0 0 0-1-1 7 7 0 0 1-1 0c0-2-1-3-3-4v-1h-1v-1a1 1 0 0 0 0-1 2 2 0 0 0-1 2 2 2 0 0 0 1 2h1l1 2 2 3a10 10 0 0 1 1 0 5 5 0 0 1-4 5h-2c-4 0-6 0-8-5a20 20 0 0 1 0-5 1 1 0 1 0 0-1v-1a1 1 0 0 0 0-1c0-3-1-4-2-5a1 1 0 1 0-1 1l1 4h-1l-2-2-1-1h2a1 1 0 0 0 0-1l-4-1c-5-6-5-12-4-15 0 0 2-7 0-11a3 3 0 0 0-2-1l-1-2a10 10 0 0 0-1-2 5 5 0 0 0-2-2 9 9 0 0 1-2-4v-4a3 3 0 0 1 2 1s7 5 11 5c-3 2-5 5-5 8a1 1 0 0 0 2 0c0-3 2-6 6-8a14 14 0 0 0 5-2 1 1 0 1 0-1-1 15 15 0 0 1-7 2l-6-3a8 8 0 0 0 9-2c4-3 6-5 19-5s15 2 19 5a8 8 0 0 0 6 3 10 10 0 0 0 3-1l-6 3a15 15 0 0 1-7-2 1 1 0 0 0-1 1 14 14 0 0 0 5 2c4 2 6 5 6 8a1 1 0 0 0 2 0c0-3-2-6-5-8 4 0 11-5 11-5a3 3 0 0 1 2-1v4a9 9 0 0 1-2 4 5 5 0 0 0-2 2 9 9 0 0 0-1 2v2a3 3 0 0 0-3 1c-2 4 0 11 0 11 1 3 1 9-4 15l-4 1a1 1 0 0 0 0 1h2l-1 1z"/><path class="cls-1" d="M65 38a1 1 0 0 0 0-1l4-4a1 1 0 1 0-2-1l-3 4a1 1 0 0 0 1 2zm-4-2a1 1 0 0 0 1-1l1-4a1 1 0 1 0-1 0l-1 3a1 1 0 0 0 0 2zm-3-1a1 1 0 0 0 1-1l-1-3a1 1 0 0 0-1 0v4a1 1 0 0 0 1 0z"/><circle class="cls-1" cx="38.13" cy="69.84" r="1.05"/><circle class="cls-1" cx="38.48" cy="73.41" r="1.05"/><circle class="cls-1" cx="41.22" cy="75.76" r="1.05"/><circle class="cls-1" cx="42.14" cy="72.11" r="1.05"/><circle class="cls-1" cx="45.06" cy="73.95" r="1.05"/><circle class="cls-1" cx="61.87" cy="69.84" r="1.05"/><circle class="cls-1" cx="61.52" cy="73.41" r="1.05"/><circle class="cls-1" cx="58.78" cy="75.76" r="1.05"/><circle class="cls-1" cx="57.86" cy="72.11" r="1.05"/><circle class="cls-1" cx="54.94" cy="73.95" r="1.05"/><path class="cls-1" d="M54 53a1 1 0 0 0-1 0 9 9 0 0 1-3 6 9 9 0 0 1-3-6 1 1 0 0 0-1 0 11 11 0 0 0 4 7 11 11 0 0 0 4-7 1 1 0 0 0 0-1zm-14 2a1 1 0 0 0-1 0v2c-2 2-4 4-1 8a1 1 0 0 0 1-1c-2-2-1-4 1-7l1-1a1 1 0 0 0-1-1zm21 0a1 1 0 1 0-2 1l1 1c2 3 3 4 1 7a1 1 0 1 0 1 1c3-4 1-6-1-8v-2zM42 65a1 1 0 0 0-2 0 4 4 0 0 0 2 4 1 1 0 0 0 1-1 3 3 0 0 1-1-3zm16 4a4 4 0 0 0 2-4 1 1 0 0 0-2 0 3 3 0 0 1-1 3 1 1 0 0 0 1 1zm-5-4a4 4 0 0 1-6 0 1 1 0 0 0-1 1 5 5 0 0 0 8 0 1 1 0 0 0-1-1zM31 51a1 1 0 1 0-1 1l4 4a1 1 0 0 0 1 0l-4-5zm40 0a1 1 0 0 0-1 0c-3 1-5 4-5 5a1 1 0 0 0 2 0l3-4a1 1 0 0 0 1-1z"/></g><path d="M8 13l-1-3H2l-1 3H0l4-9h1l3 9zM2 9h4L5 5 4 4v1L2 9zm19 0h3v4-2l-1 2h-5l-1-2-1-3 1-2 1-2h5l1 2-1-1-2-1-2 1-1 1-1 2 1 3q1 2 3 2l1-1 1-1 1-1V9h-3zm14 3h5v1h-6V4h6-5v4h4v1h-4v3zm21-8v9l-5-7-1-1v8h-1V4h1l5 7 1 1V4zm18 7l-2 2h-4l-2-2V8 6l2-2h2q3 0 4 2h-1l-1-1-2-1-2 1-1 1v5l1 1 2 1 2-1 1-2 1 1zm9 1h6v1h-6V4h6-6v4h5v1h-5v3zm30-8l3 1 1 3-1 4-3 1h-3V4h3zm0 8l2-1 1-3-1-3-2-1h-3v8h3zm14 0h6v1h-6V4h6-6v4h5v1h-5v3zm31-5l-2 6h-1l-3-9h1l3 8 2-8h1l2 8 3-8h1l-3 9h-1l-2-6V5l-1 2zm16 5h6v1h-6V4h6-6v4h5v1h-5v3zm15 1V4h6v4h-1l1 1 1 2-1 1-3 1h-3zm1-5h2q3 0 3-2t-3-2h-2v4zm0 4h4l1-1-1-2h-4v3zm29-8l4 1 1 3-1 4-4 1h-3V4h3zm0 8l3-1 1-3-1-3-3-1h-2v8h2zm15 0h6v1h-7V4h7-6v4h4v1h-4v3zm18-8q2 0 3 2l-1-1-2-1-2 1h-1v2l1 1h2l3 1v3l-1 1h-5l-1-2 1-1 1 2 2 1 2-1 1-1-1-1-2-1-2-1-1-1-1-1 1-1 1-1h2zm13 0v9-9zm14 5h3v4-2l-1 2h-5l-1-2V8 6l2-2h4l1 2-1-1-2-1-2 1-1 1-1 2 1 3q1 2 3 2l1-1 1-1 1-1V9h-3zm20-5v9h-1l-5-7V5v8h-1V4h1l5 7v1-8h1z" transform="matrix(.49592 0 0 .49592 111.699 160.646)" id="5afeb38c-54b7-45cf-8e8f-6e00f7dcb161"/></svg>