<svg xmlns="http://www.w3.org/2000/svg" viewBox="0 0 488 90" class="iconLeftSlogan"><path d="M1.5 14.6l-.1-.9.4-3.7q.4-2.9.4-4.7V4.2q1 .1 1.3.5l.2.5V6l-.4 3.7q-.5 3.2-.5 4.6H3q3 0 4.6-.5-.1.8-.6 1.2-.5.5-1.1.5l-1.2-.1h-2l-1.9.1q.2-.5.7-.9zm9.3-4.6q-.5.7-.7 1.4l-.1 1.4q0 .7.2 1.2.3.4.8.4.9 0 1.5-.8.7-.9 1.1-2.1.4-1.3.4-2.3l-.1-1.7h.4q1.2 0 1.2 1.2l-.3 2.1q-.4 1.9-.4 3.1 0 1.1.5 2-.9-.2-1.3-.8-.4-.6-.4-1.7v-.8q-.3 1.4-1.3 2.2-1 .8-1.9.8-.9 0-1.4-.7-.6-.7-.6-1.9t.5-2.4q.4-1.2 1.3-2 .9-.9 2.1-.9.5 0 1.1.3-.9.1-1.6.7-.6.5-1 1.3zm14-4.3l.1.2-.5 3.4q-.4 3-.4 5l.1 1.3-.3.1q-.7 0-1-.3-.3-.4-.3-1l.5-3.9q.5-3.4.5-4.8t-.2-1.8l.8.3q.4.3.6.8 1.1-.6 2.3-.6 1.4 0 2.1.8.8.8.8 2 0 1.5-1.1 2.7-1.1 1.1-3 1.1H25v-.4q1 0 1.7-.3t1-.7q.7-.9.7-2.1 0-.9-.5-1.5-.6-.6-1.6-.6-.7 0-1.5.3zM33 10q-.5.7-.7 1.4l-.2 1.4q0 .7.3 1.2.3.4.9.4.7 0 1.5-.8.6-.9 1-2.1.4-1.3.4-2.3 0-1-.2-1.7h.5q1.2 0 1.2 1.2l-.3 2.1q-.4 1.9-.4 3.1 0 1.1.5 2-.9-.2-1.3-.8-.4-.6-.4-1.7v-.8q-.3 1.4-1.3 2.2-.9.8-1.9.8-.9 0-1.4-.7-.6-.7-.6-1.9t.4-2.4q.5-1.2 1.4-2 1-.9 2.1-.9.5 0 1.1.3-.9.1-1.6.7-.6.5-1 1.3zm13.4-.7q0 .7-.4 2.3l-.2 2.4q0 .7.2 1 .2.4.6.6H46q-.9 0-1.3-.3t-.4-1.3l.3-2 .3-2.4q0-.9-.6-.9-.9 0-1.8 1.6-1 1.5-1 3.7l.1 1.4-.4.1q-1.2 0-1.2-1.2l.2-2.2q.3-1.9.3-3T40.3 7q.8.4 1.2 1 .3.6.3 1.3l-.2 1.8Q42 9.5 43 8.4q1-1.1 1.9-1.1 1.5 0 1.5 2zM53 7.8q0 .5-.2.8-.2.2-.6.2h-1l-.3 1.7q-.5 2.6-.5 4 0 1.3.2 1.7-.8-.2-1.1-.9-.4-.6-.4-1.4l.1-1.6.3-1.8.3-1.7-1.6.5v-.4q0-.7.5-.9.4-.2 1.3-.2V6.2v-.8V5q.7 0 1 .5.4.5.4 1.3l-.1 1q1.2 0 1.7-.4v.4zm2.7 3.3q.4-1.6 1.4-2.7.9-1.1 1.9-1.1.8 0 1.1.6.4.5.4 1.4l-.3 2.4L60 14v1q.3.4.7.6h-.5q-.9 0-1.3-.3-.5-.4-.5-1.3l.3-2 .3-2.4q0-.9-.6-.9-.4 0-.9.3l-.9 1.1q-.4.7-.6 1.8-.4 1.1-.4 2.1l.1 1.4-.4.1q-.6 0-.9-.3-.4-.3-.4-.9l.3-2.3q.7-5.2.7-7.9l-.1-1.6q.8.3 1.1.8.3.7.3 1.7L56 7.8l-.3 3.3zM66.3 8q-.9 0-1.4 1-.6 1-.9 2.3h.5q.7 0 1.3-.2l.8-.5q.6-.6.6-1.5 0-.5-.2-.7-.3-.4-.7-.4zm2 5.8q-.7 1-1.5 1.4-.8.4-1.8.4t-1.7-.9q-.8-.9-.8-2.5 0-1.8 1-3.2.5-.8 1.3-1.2.8-.5 1.7-.5 2.1 0 2.1 2.1 0 1.2-.9 1.9t-2.2.7q-.8 0-1.5-.2v.5q0 2.4 1.5 2.4 1.4 0 2.2-1.3.6 0 .6.4zM68 6.3q0 .2-.2.3l-.3.2q-.5-.7-1.3-1.3-.8-.6-1.6-.8.1-.7.7-1.2.7.3 1.5 1.2.8.8 1.2 1.6zm4.1 4.6q.5-1.9 1.2-2.7.7-.9 1.3-.9.6 0 .9.5.3.5.3 1.2t-.3 1.2q-.4.5-1.1.5l-.4-.1q.5-.6.5-1.4 0-.5-.4-.5-.3 0-.6.4-.5.4-.7 1.1-.4.6-.6 1.8-.2 1-.2 2.2v1.2l-.4.1q-1.2 0-1.2-1.2l.3-2.2q.3-1.9.3-3T70.7 7q.9.4 1.2 1 .3.6.3 1.4l-.1 1.5zM80.3 8q-.8 0-1.3 1-.7 1-.8 2.3h.3q.8 0 1.3-.2.6-.2.9-.5.5-.6.5-1.5 0-.5-.2-.7-.2-.4-.7-.4zm2 5.8q-.6 1-1.3 1.4-.9.4-1.9.4-1 0-1.8-.9-.7-.9-.7-2.5 0-1.8 1-3.2.4-.8 1.3-1.2.8-.5 1.7-.5 2.1 0 2.1 2.1 0 1.2-.9 1.9-1 .7-2.2.7l-1.6-.2v.5q0 2.4 1.5 2.4t2.3-1.3q.5 0 .5.4z" transform="matrix(4.3573 0 0 4.3573 127.587 -10.719)" id="409599fb-89aa-4ddd-9c19-604f11e9ffd0"/><defs><linearGradient gradientTransform="rotate(25)" id="1c9e5e94-8daa-4b90-953d-5ec5a7b7c461" x1="0%" y1="0%" y2="0%"><stop offset="0%" stop-color="#B4373D"/><stop offset="100%" stop-color="#B23ACB"/></linearGradient></defs><g id="97221fff-9f5f-45e5-b2fa-fe4d6ef25df3" transform="matrix(1.21017 0 0 1.21017 -4.369 -14.703)" fill="url(#1c9e5e94-8daa-4b90-953d-5ec5a7b7c461)"><defs><style>.cls-1{fill:#1d1d1b}</style></defs><path class="cls-1" d="M44 46a5.7 5.7 0 0 0-3.5-2.7h-.1a11.6 11.6 0 0 0-2.5-.5 15.6 15.6 0 0 1-6.4-2.4.8.8 0 0 0-.8 1.2 17.3 17.3 0 0 0 2 1.1l-.1.3a6 6 0 0 0 4.2 7.5 6.5 6.5 0 0 0 1.8.3 5.9 5.9 0 0 0 4.7-2.3 10.3 10.3 0 0 1-.2 3 .8.8 0 0 0 .5 1 .8.8 0 0 0 .2 0 .8.8 0 0 0 .7-.5 11.6 11.6 0 0 0 .2-4.1 5 5 0 0 0-.5-1.9zm-4.5-1.4a1.3 1.3 0 0 1 0 .5 1.3 1.3 0 1 1-2.5-.7 1.3 1.3 0 0 1 0-.2h.6a10.9 10.9 0 0 1 1.9.3zm1 4.3a4.7 4.7 0 0 1-3.5.3 4.6 4.6 0 0 1-3.1-5.7v-.1a15.8 15.8 0 0 0 1.7.6A2.8 2.8 0 1 0 41 45a3.9 3.9 0 0 1 1.5 1.3 4.3 4.3 0 0 1-2 2.4zM67.6 43l-.1-.3a17.3 17.3 0 0 0 2-1.1.8.8 0 0 0-.8-1.2 15.6 15.6 0 0 1-6.4 2.4 11.6 11.6 0 0 0-2.5.5h-.1A5.7 5.7 0 0 0 56 46a5 5 0 0 0-.5 2 11.6 11.6 0 0 0 .2 4.1.8.8 0 0 0 .7.5.8.8 0 0 0 .7-1 10.3 10.3 0 0 1-.2-3 5.9 5.9 0 0 0 4.7 2.3 6.5 6.5 0 0 0 1.8-.3 6 6 0 0 0 4.2-7.6zm-5.3 1.2h.6a1.3 1.3 0 0 1 0 .2A1.3 1.3 0 0 1 62 46a1.3 1.3 0 0 1-1.6-1.4 10.9 10.9 0 0 1 1.8-.3zm.7 4.9a4.7 4.7 0 0 1-3.5-.3 4.3 4.3 0 0 1-2-2.4 3.9 3.9 0 0 1 1.5-1.3 2.8 2.8 0 0 0 0 .4 2.8 2.8 0 0 0 2.7 2 2.8 2.8 0 0 0 2.7-3.5 15.8 15.8 0 0 0 1.7-.6v.1a4.6 4.6 0 0 1-3.1 5.6z"/><path class="cls-1" d="M46.3 44.9c-.2-2.3-2-3.7-5.2-4a11.6 11.6 0 0 1-4.7-1.7.8.8 0 0 0-.8 1.3 13 13 0 0 0 5.4 2c1.4 0 3.6.6 3.8 2.5a.8.8 0 0 0 .8.7.8.8 0 0 0 .7-.8zm13-2.4a13 13 0 0 0 5.4-2 .8.8 0 0 0-.8-1.3 11.6 11.6 0 0 1-4.7 1.8c-3.1.2-5 1.7-5.2 4a.8.8 0 0 0 .7.8.8.8 0 0 0 .8-.7c.1-2 2.5-2.5 3.8-2.6zm-24.7-5.2a.8.8 0 1 0 1.2-1l-3.2-4a.8.8 0 1 0-1.2 1zM38 35a.8.8 0 0 0 .7.5.8.8 0 0 0 .7-1L38 30.8a.8.8 0 1 0-1.4.5zm4 .2a.8.8 0 0 0 .8-.7l.3-3.2a.8.8 0 0 0-.7-.8.7.7 0 0 0-.8.7l-.3 3.2a.8.8 0 0 0 .8.8z"/><path class="cls-1" d="M95.3 61c-3.9-1.2-13-1.1-20.5-.8 5-6.3 5-12.4 4.1-15.3-.7-2.1-1.7-7.6-.4-9.7a1.6 1.6 0 0 1 1.2-.8c1.8-.2 2-2 2.3-3.5a8.4 8.4 0 0 1 .3-1.5 4.3 4.3 0 0 1 1.2-1.4 10.6 10.6 0 0 0 3.2-4.2c1.6-4-.5-5.8-.6-6a.7.7 0 0 0-.3-.1 6.2 6.2 0 0 0-4.9.7l-2.8 1.3a6.9 6.9 0 0 1-8-1.3c-4.5-4.3-7.7-5.6-20-5.6s-15.5 1.3-20 5.6a6.9 6.9 0 0 1-8 1.3 51.7 51.7 0 0 1-2.8-1.3 6.2 6.2 0 0 0-4.8-.7.7.7 0 0 0-.4.1s-2.2 2-.6 6a10.6 10.6 0 0 0 3.2 4.2 4.3 4.3 0 0 1 1.2 1.4A8.4 8.4 0 0 1 18 31c.3 1.5.6 3.3 2.3 3.5a1.6 1.6 0 0 1 1.2.8c1.3 2.1.3 7.5-.4 9.7-1 2.9-.9 9 4.1 15.3-7.5-.3-16.6-.5-20.5.8a.8.8 0 0 0 .5 1.4c4-1.3 15-1 21.2-.7h.3l.7.7c-7.7.1-12.9.6-15.5 1.6a.8.8 0 1 0 .5 1.4c2.6-1 8.3-1.4 16.6-1.5l1 .9c-6.5.4-17 1.2-21 3a.8.8 0 0 0 .6 1.4c4.2-1.8 16.2-2.6 22.2-3l1 .7h.1c-6.3.6-10.6 1.4-12.8 2.4a.8.8 0 0 0 .6 1.4c2-1 6.5-1.7 12.7-2.3A20 20 0 0 0 34 74c1.6 4.3 3.9 5.4 6.5 5.6a5.7 5.7 0 0 0 1.5 1.8 15.2 15.2 0 0 0-3.4 4.5.8.8 0 0 0 1.4.5c.3-.7 1-2 3.3-4.2a10.9 10.9 0 0 0 2 .8 11.3 11.3 0 0 0-1 3.4.8.8 0 0 0 .7.8.8.8 0 0 0 .8-.7 10.3 10.3 0 0 1 1-3.2 19.9 19.9 0 0 0 6.5 0 10.5 10.5 0 0 1 1 3.2.8.8 0 0 0 .8.7.8.8 0 0 0 .7-.8 11.3 11.3 0 0 0-.9-3.4 10.9 10.9 0 0 0 2-.8c2.2 2.2 3 3.5 3.3 4.2a.8.8 0 0 0 1.4-.5 15.2 15.2 0 0 0-3.4-4.5 5.7 5.7 0 0 0 1.5-1.8c2.6-.2 4.8-1.3 6.5-5.6a20 20 0 0 0 .7-5.5c6.3.6 10.7 1.4 12.7 2.3a.8.8 0 1 0 .6-1.4c-2.2-1-6.6-1.8-13-2.4l.8-.6.3-.2c6 .3 18.2 1.1 22.4 3a.8.8 0 0 0 .6-1.4c-4-1.8-14.6-2.6-21-3l1.1-.9c8.3 0 14 .6 16.6 1.5a.8.8 0 0 0 .5-1.4c-2.6-1-7.8-1.5-15.5-1.6l.7-.7h.3c6.2-.3 17-.6 21.2.7a.8.8 0 0 0 .5-1.5zm-42 19a.8.8 0 1 0-1.3.8l.6 1.2a18.1 18.1 0 0 1-5.2 0l.6-1.2a.8.8 0 1 0-1.3-.8l-.9 1.7a7 7 0 0 1-3.6-2h2.4a6 6 0 0 0 5.4-3.3 6 6 0 0 0 5.3 3.1h2.4a7 7 0 0 1-3.6 2l-.9-1.6zm17.1-17.3l-2.7 2H67c.1-1.7.5-3.3 1-3.7a.8.8 0 0 0-1-1.2c-1 .8-1.4 2.6-1.6 4.8h-.6a.7.7 0 0 0-.8.7.8.8 0 0 0 .7.8h.6v.7H65a.8.8 0 0 0-.8.7.8.8 0 0 0 .7.8h.2a20 20 0 0 1-.6 5c-1.4 3.8-3 4.5-5.5 4.7h-3.7a4.5 4.5 0 0 1-4.5-4.5 5.5 5.5 0 0 1 1.2-.8c1-.6 2.5-1.5 2-2.8-.2-.4 0-.7 1.7-1.8l.6-.4a2.5 2.5 0 0 0 1.3-2 2 2 0 0 0-1-1.6.7.7 0 0 0-1 .2.8.8 0 0 0 .2 1s.3.2.3.4-.2.4-.7.8l-.6.4c-1.6 1.1-3 2-2.2 3.6 0 .3-.9.7-1.3 1a10.2 10.2 0 0 0-1.1.8 10.2 10.2 0 0 0-1.1-.8 7.5 7.5 0 0 1-1.3-1c.7-1.7-.6-2.5-2.2-3.6l-.6-.4c-.5-.3-.7-.6-.7-.8s.2-.3.3-.4a.8.8 0 0 0-.8-1.3 2 2 0 0 0-1 1.6 2.5 2.5 0 0 0 1.3 2l.6.4c1.7 1.2 1.9 1.4 1.7 1.8-.5 1.3.9 2.1 2 2.8a10.5 10.5 0 0 1 1.2.8 4.5 4.5 0 0 1-4.5 4.5h-1.6c-3.7 0-6 .1-7.8-4.7a20 20 0 0 1-.6-5h.2a.8.8 0 1 0-.1-1.5h-.1V66h.6a.8.8 0 0 0 0-1.5h-.6c-.2-2.2-.6-4-1.6-4.8A.8.8 0 1 0 32 61c.6.5 1 2 1 3.7h-1l-2.5-2a.7.7 0 0 0-.1-.1l-.8-.7 2.3.1a.8.8 0 0 0 0-1.5l-4-.3c-5.4-6.2-5.6-12.2-4.7-15 0 0 2.3-7.6.2-11a3 3 0 0 0-2.2-1.4c-.6 0-.8-1-1-2.3a9.5 9.5 0 0 0-.4-1.8 5.4 5.4 0 0 0-1.6-2 9 9 0 0 1-2.8-3.7c-1-2.4-.2-3.7.1-4a3.2 3.2 0 0 1 2 .5S24 25 27.3 25h.7c-3 2.1-4.8 4.9-4.8 7.6a.8.8 0 0 0 1.5 0c0-2.8 2.6-5.9 6.6-7.9a13.7 13.7 0 0 0 4.5-1.5.8.8 0 1 0-.7-1.3 15.5 15.5 0 0 1-7.6 1.6c-1.3 0-3.6-1.2-5.9-2.5a8.3 8.3 0 0 0 9.3-1.7c4-3.8 6.5-5.2 19-5.2s15 1.3 19 5.2a8.2 8.2 0 0 0 5.8 2.5 9.8 9.8 0 0 0 3.4-.7c-2.2 1.3-4.6 2.5-5.8 2.5a15.5 15.5 0 0 1-7.6-1.6.8.8 0 0 0-.7 1.3 13.7 13.7 0 0 0 4.6 1.7c4 2 6.6 5 6.6 7.9a.8.8 0 0 0 1.5 0c0-2.7-1.8-5.5-4.8-7.6h.4c3.3 0 10.7-5.5 10.8-5.5a3.2 3.2 0 0 1 2-.5c.3.4 1 1.7.1 4a9 9 0 0 1-2.8 3.7 5.4 5.4 0 0 0-1.6 2 9.5 9.5 0 0 0-.4 1.8c-.2 1.3-.4 2.2-1 2.3a3 3 0 0 0-2.3 1.4c-2.1 3.3.2 10.9.2 11 .9 2.7.7 8.7-4.7 15l-4 .3a.8.8 0 0 0 0 1.5l2.3-.1-.8.7z"/><path class="cls-1" d="M64.8 37.5a.8.8 0 0 0 .6-.3l3.2-4a.8.8 0 1 0-1.2-1l-3.2 4a.8.8 0 0 0 .6 1.2zm-3.8-2a.7.7 0 0 0 .3 0 .8.8 0 0 0 .7-.5l1.4-3.7a.8.8 0 1 0-1.4-.5l-1.4 3.7a.8.8 0 0 0 .4 1zm-3-.3a.8.8 0 0 0 .7-.8l-.3-3.2a.8.8 0 0 0-1.5.1l.3 3.2a.8.8 0 0 0 .8.7z"/><circle class="cls-1" cx="38.13" cy="69.84" r="1.05"/><circle class="cls-1" cx="38.48" cy="73.41" r="1.05"/><circle class="cls-1" cx="41.22" cy="75.76" r="1.05"/><circle class="cls-1" cx="42.14" cy="72.11" r="1.05"/><circle class="cls-1" cx="45.06" cy="73.95" r="1.05"/><circle class="cls-1" cx="61.87" cy="69.84" r="1.05"/><circle class="cls-1" cx="61.52" cy="73.41" r="1.05"/><circle class="cls-1" cx="58.78" cy="75.76" r="1.05"/><circle class="cls-1" cx="57.86" cy="72.11" r="1.05"/><circle class="cls-1" cx="54.94" cy="73.95" r="1.05"/><path class="cls-1" d="M53.6 52.5a.8.8 0 0 0-.8.7 9.2 9.2 0 0 1-2.8 5.4 9.2 9.2 0 0 1-2.7-5.4.8.8 0 0 0-1.5.1 11 11 0 0 0 3.7 6.9.8.8 0 0 0 .5.2.8.8 0 0 0 .5-.2 11 11 0 0 0 3.7-6.9.8.8 0 0 0-.6-.8zm-13.2 2.7a.8.8 0 0 0-1 .3l-.7 1.1c-1.3 2-3.4 4.9-.5 8a.8.8 0 0 0 1.1-1c-1.9-2-1-3.8.6-6.1l.8-1.2a.8.8 0 0 0-.3-1zm20.3.3a.8.8 0 1 0-1.3.8l.8 1.2c1.6 2.3 2.5 4 .6 6.1a.8.8 0 1 0 1.1 1c2.9-3 .8-6-.5-8l-.7-1zM41.9 65a.8.8 0 0 0-1.4-.5 4.1 4.1 0 0 0 2 4.8.8.8 0 0 0 .8-1.3 2.6 2.6 0 0 1-1.4-3zm15.7 4.3a4.1 4.1 0 0 0 2-4.8.8.8 0 0 0-1.4.5 2.6 2.6 0 0 1-1.3 3 .8.8 0 0 0 .8 1.3zm-4.7-4.1a3.8 3.8 0 0 1-5.8 0 .8.8 0 0 0-1.2 1 5.3 5.3 0 0 0 8 0 .8.8 0 0 0-1.2-1zM30.5 50.5a.8.8 0 1 0-.7 1.3c2.6 1.4 3.8 3.6 3.8 4.4a.8.8 0 0 0 1.5 0c0-1.6-1.7-4.1-4.5-5.7zm40.1.3a.8.8 0 0 0-1-.3C66.7 52 65 54.6 65 56.2a.8.8 0 0 0 1.5 0c0-.8 1.1-3 3.8-4.4a.8.8 0 0 0 .3-1z"/></g><path d="M7.7 13l-1.1-2.9H2.2L1 13H.3L4 3.8h.8L8.5 13h-.8zM2.4 9.5h3.9l-1.6-4-.3-1-.4.9-1.6 4.1zm18.1-1h3.8V13h-.5l-.1-1.6q-.3.9-1.1 1.3-.9.5-2 .5-1.3 0-2.2-.6-1-.6-1.5-1.6-.5-1.2-.5-2.6 0-1.4.6-2.5.4-1.1 1.4-1.7.9-.6 2.2-.6 1.4 0 2.3.6.9.6 1.4 1.8l-.7.2q-.3-.9-1.1-1.4-.7-.5-1.9-.5-1 0-1.8.5t-1.2 1.4q-.5.9-.5 2.2 0 1.9.9 3 1 1.1 2.6 1.1 1 0 1.7-.4t1-1.1q.4-.6.4-1.3v-.5h-3.2v-.7zm14 3.9h5.8v.6h-6.5V3.8h6.3v.6h-5.6V8H39v.7h-4.5v3.7zm22-8.6V13h-.9l-4.9-7.2-.7-1.3V13h-.6V3.8h.9l4.8 7.2.7 1.3V3.8h.7zm17.2 6.9q-.4 1.2-1.4 1.8-1 .7-2.3.7-1.3 0-2.2-.6-1-.6-1.5-1.6-.5-1.2-.5-2.6 0-1.4.5-2.5t1.5-1.7q.9-.6 2.2-.6 2.7 0 3.6 2.4l-.7.2q-.4-.9-1.1-1.4-.7-.5-1.8-.5-1 0-1.8.5T67 6.2q-.5.9-.5 2.2 0 1.3.5 2.2.4.9 1.2 1.4.8.5 1.8.5 1.1 0 1.9-.5.8-.6 1.1-1.6l.7.3zm9.7 1.7h5.9v.6h-6.6V3.8H89v.6h-5.6V8h4.5v.7h-4.5v3.7zm29.2-8.6q2.2 0 3.4 1.2 1.2 1.1 1.2 3.3 0 2.3-1.2 3.5-1.2 1.2-3.4 1.2h-2.9V3.8h2.9zm.1 8.6q1.8 0 2.8-1.1 1-1 1-3 0-1.8-1-2.9-1-1-2.8-1h-2.3v8h2.3zm14.6 0h5.7v.6h-6.5V3.8h6.4v.6h-5.6V8h4.4v.7h-4.4v3.7zM158 6.5l-1.8 6.5h-.9l-2.8-9.2h.7l2.6 8.6 2.4-8.6h.8l2.4 8.7 2.6-8.7h.7l-2.9 9.2h-.8l-1.9-6.5-.5-2-.6 2zm16.3 5.9h5.9v.6h-6.6V3.8h6.4v.6h-5.7V8h4.5v.7h-4.5v3.7zm14.9.6V3.8h3.2q1.6 0 2.3.6.7.6.7 1.8 0 .8-.4 1.4-.4.6-1.2.7.9.2 1.4.7.5.7.5 1.5 0 1.2-.8 1.9-.9.6-2.5.6h-3.2zm.7-5h2.6q2.2 0 2.2-1.8t-2.2-1.8h-2.6V8zm0 4.4h2.7q1.2 0 1.8-.5.6-.5.6-1.4 0-.9-.6-1.3-.6-.5-1.8-.5h-2.7v3.7zm29.4-8.6q2.2 0 3.4 1.2 1.3 1.1 1.3 3.3 0 2.3-1.3 3.5-1.2 1.2-3.4 1.2h-2.9V3.8h2.9zm.1 8.6q1.8 0 2.8-1.1 1-1 1-3 0-1.8-1-2.9-1-1-2.8-1h-2.3v8h2.3zm14.6 0h5.8v.6h-6.5V3.8h6.3v.6H234V8h4.4v.7H234v3.7zm17.7-8.8q2.6 0 3.5 2.1l-.6.5q-.4-1-1.1-1.5-.7-.4-1.8-.4-.8 0-1.4.2-.6.3-.9.7-.4.5-.4 1t.3.8q.3.4.9.7.7.3 1.8.4 1.8.3 2.6.9.7.6.7 1.6 0 .8-.4 1.4-.5.5-1.2.8-.9.4-1.9.4-1.4 0-2.4-.6T248 11l.6-.5q.4 1 1.2 1.5.8.5 2 .5t2-.5q.8-.5.8-1.3 0-.7-.6-1.2-.7-.5-2.2-.7-1.3-.2-2.1-.5-.7-.3-1-.8-.4-.5-.4-1.2t.4-1.3q.4-.7 1.3-1 .7-.4 1.7-.4zm13.5.2V13h-.7V3.8h.7zm13.5 4.7h3.8V13h-.6v-1.6q-.4.9-1.2 1.3-.8.5-2 .5-1.3 0-2.2-.6-.9-.6-1.5-1.6-.5-1.2-.5-2.6 0-1.4.5-2.5.6-1.1 1.5-1.7 1-.6 2.2-.6 1.4 0 2.3.6 1 .6 1.4 1.8l-.6.2q-.4-.9-1.1-1.4-.8-.5-2-.5-1 0-1.7.5-.9.5-1.3 1.4-.4.9-.4 2.2 0 1.9.9 3t2.5 1.1q1 0 1.7-.4t1.1-1.1q.3-.6.3-1.3v-.5h-3.1v-.7zM299 3.8V13h-.8l-4.9-7.2-.7-1.3V13h-.6V3.8h.8l4.9 7.2.7 1.3V3.8h.6z" transform="translate(130.728 56.52) scale(.9559)" id="54c8ca41-f910-4170-8f82-6d26474b6f31"/></svg>